<?xml version="1.0" encoding="UTF-8"?>
<svg width="17px" height="14px" viewBox="0 0 17 14" version="1.1" xmlns="http://www.w3.org/2000/svg" xmlns:xlink="http://www.w3.org/1999/xlink">
    <!-- Generator: Sketch 63.1 (92452) - https://sketch.com -->
    <title>Path</title>
    <desc>Created with Sketch.</desc>
    <g id="Page-2" stroke="none" stroke-width="1" fill="none" fill-rule="evenodd">
        <g id="Tabless-Copy-33" transform="translate(-1045.000000, -719.000000)" fill="#FFFFFF" fill-rule="nonzero">
            <g id="Group-2" transform="translate(1031.000000, 703.000000)">
                <g id="Group-Copy" transform="translate(22.500000, 22.500000) rotate(-180.000000) translate(-22.500000, -22.500000) translate(0.000000, -0.000000)">
                    <path d="M30.440916,22.4063467 C30.451104,22.3935307 30.462876,22.3819027 30.4722,22.3683667 C30.492936,22.3383067 30.509712,22.3057987 30.525804,22.2727507 C30.530556,22.2629227 30.536964,22.2541027 30.541284,22.2442747 C30.559212,22.2026227 30.572928,22.1588467 30.582756,22.1136667 C30.583296,22.1112187 30.58434,22.1090947 30.58488,22.1066467 C30.594744,22.0593787 30.6,22.0103107 30.6,21.9600547 C30.6,21.9097987 30.594744,21.8607307 30.58488,21.8134627 C30.58434,21.8110147 30.583296,21.8088907 30.582756,21.8064427 C30.572928,21.7612627 30.559212,21.7174867 30.541284,21.6758347 C30.536964,21.6660067 30.530556,21.6571867 30.525804,21.6473587 C30.509712,21.6143107 30.492936,21.5818027 30.4722,21.5517427 C30.462876,21.5382067 30.451104,21.5266147 30.440916,21.5137627 C30.421332,21.4891387 30.401964,21.4647307 30.379464,21.4429147 C30.376836,21.4404667 30.374964,21.4372987 30.372336,21.4348147 L24.612336,16.0348147 C24.322464,15.7626907 23.866488,15.7774867 23.594724,16.0676827 C23.32278,16.3577347 23.337396,16.8133507 23.627592,17.0852947 L28.059264,21.2400547 L14.76,21.2400547 C14.36238,21.2400547 14.04,21.5624347 14.04,21.9600547 C14.04,22.3576747 14.36238,22.6800547 14.76,22.6800547 L28.059264,22.6800547 L23.627628,26.8348147 C23.337396,27.1067587 23.322816,27.5623747 23.59476,27.8524267 C23.736456,28.0037707 23.928048,28.0800547 24.12018,28.0800547 C24.296652,28.0800547 24.473484,28.0155427 24.612372,27.8852947 L30.372372,22.4852947 C30.375,22.4828467 30.376872,22.4796787 30.3795,22.4771947 C30.402,22.4554147 30.421332,22.4309707 30.440916,22.4063467 Z" id="Path"></path>
                </g>
            </g>
        </g>
    </g>
</svg>