<?xml version="1.0" encoding="UTF-8"?>
<svg width="79px" height="17px" viewBox="0 0 79 17" version="1.1" xmlns="http://www.w3.org/2000/svg" xmlns:xlink="http://www.w3.org/1999/xlink">
    <!-- Generator: Sketch 63.1 (92452) - https://sketch.com -->
    <title>Group 3</title>
    <desc>Created with Sketch.</desc>
    <g id="Page-2" stroke="none" stroke-width="1" fill="none" fill-rule="evenodd">
        <g id="Tabless-Copy-27" transform="translate(-63.000000, -723.000000)" fill="#FFFFFF">
            <g id="Group-3" transform="translate(63.000000, 723.000000)">
                <path d="M42.4764618,1 L40.6110771,1 C38.5218463,1 37.1638462,2.50193553 37.1638462,4.82751312 L37.1638462,6.58784616 L35.2984615,6.58784616 C35.1343077,6.58784616 35,6.73319476 35,6.91084305 L35,9.46251846 C35,9.64016675 35.1343077,9.78551535 35.2984615,9.78551535 L37.1638462,9.78551535 L37.1638462,16.1970036 C37.1638462,16.3746519 37.2981539,16.5200005 37.4623078,16.5200005 L39.9096925,16.5200005 C40.0738463,16.5200005 40.208154,16.3746519 40.208154,16.1970036 L40.208154,9.7693655 L42.4018464,9.7693655 C42.5660002,9.7693655 42.7003079,9.6240169 42.7003079,9.44636862 L42.7003079,6.8946932 C42.7003079,6.81394398 42.6704618,6.73319476 42.6107695,6.66859538 C42.5510771,6.603996 42.4764618,6.57169631 42.4018464,6.57169631 L40.1932309,6.57169631 L40.1932309,5.08591063 C40.1932309,4.37531748 40.3573848,4.00387106 41.2080002,4.00387106 L42.4615387,4.00387106 C42.6256925,4.00387106 42.7600002,3.85852246 42.7600002,3.68087417 L42.7600002,1.32299689 C42.7600002,1.1453486 42.6406156,1 42.4764618,1 Z" id="Path"></path>
                <path d="M4.91466681,14.6400003 C10.7605337,14.6400003 13.9162671,10.1765754 13.9162671,6.28907625 C13.9162671,6.1450948 13.9162671,6.04910716 13.9162671,5.90512571 C14.5370671,5.47318136 15.0544004,4.9932432 15.5200005,4.36932358 C14.9509338,4.60929266 14.3301338,4.75327411 13.7093337,4.84926175 C14.3818671,4.46531121 14.8474671,3.88938541 15.1061338,3.21747198 C14.4853338,3.5534287 13.8128004,3.79339778 13.0885337,3.93737923 C11.898667,2.73753382 9.88106696,2.68954 8.58773359,3.79339778 C7.76000023,4.51330503 7.39786688,5.569169 7.65653356,6.62503296 C5.12160015,6.48105151 2.74186675,5.32919991 1.13813337,3.50543488 C0.310400009,4.84926175 0.724266688,6.57703915 2.12106673,7.44092785 C1.60373338,7.44092785 1.13813337,7.2969464 0.672533353,7.05697731 C0.672533353,7.05697731 0.672533353,7.10497113 0.672533353,7.10497113 C0.672533353,8.49679181 1.75893339,9.69663723 3.20746676,9.98460013 C2.74186675,10.0805878 2.27626673,10.1285816 1.75893339,10.0325939 C2.17280006,11.2324394 3.36266677,12.0483342 4.70773347,12.0963281 C3.56960011,12.9122229 2.17280006,13.3441673 0.776000023,13.3441673 C0.517333349,13.3441673 0.258666674,13.3441673 0,13.2961735 C1.50026671,14.1600622 3.20746676,14.6400003 4.91466681,14.6400003" id="Path"></path>
                <g id="Group-5" transform="translate(62.000000, 0.000000)">
                    <path d="M8.32455791,1.48555022 C10.515231,1.48555022 10.7890652,1.48555022 11.6653344,1.53860558 C12.4868369,1.59166095 12.9249715,1.69777168 13.1988056,1.80388241 C13.5821734,1.9630485 13.8560076,2.1222146 14.1298417,2.38749142 C14.4036759,2.65276825 14.6227432,2.91804507 14.7322768,3.28943263 C14.8418105,3.55470945 15.006111,3.97915237 15.006111,4.77498285 C15.0608778,5.62386869 15.0608778,5.88914551 15.0608778,8.01136011 C15.0608778,10.1335747 15.0608778,10.3988515 15.006111,11.2477374 C14.9513441,12.0435678 14.8418105,12.4680108 14.7322768,12.7332876 C14.5679763,13.1046751 14.4036759,13.369952 14.1298417,13.6352288 C13.8560076,13.9005056 13.5821734,14.1127271 13.1988056,14.2188378 C12.9249715,14.3249485 12.4868369,14.4841146 11.6653344,14.4841146 C10.7890652,14.53717 10.515231,14.53717 8.32455791,14.53717 C6.13388478,14.53717 5.86005063,14.53717 4.98378138,14.4841146 C4.16227895,14.4310593 3.72414433,14.3249485 3.45031019,14.2188378 C3.06694239,14.0596717 2.79310825,13.9005056 2.5192741,13.6352288 C2.24543996,13.369952 2.02637265,13.1046751 1.91683899,12.7332876 C1.80730534,12.4680108 1.64300485,12.0435678 1.64300485,11.2477374 C1.53347119,10.4519069 1.53347119,10.1866301 1.53347119,8.06441547 C1.53347119,5.94220088 1.53347119,5.67692405 1.58823802,4.82803821 C1.64300485,4.03220774 1.75253851,3.60776482 1.86207216,3.34248799 C2.02637265,2.97110044 2.19067313,2.65276825 2.46450728,2.38749142 C2.73834142,2.1222146 3.01217556,1.90999314 3.39554336,1.80388241 C3.72414433,1.69777168 4.16227895,1.53860558 4.98378138,1.53860558 C5.86005063,1.48555022 6.13388478,1.48555022 8.32455791,1.48555022 L8.32455791,1.48555022 Z M8.32455791,-3.17457719e-15 C6.07911795,-3.17457719e-15 5.8052838,-3.17457719e-15 4.92901455,0.053055365 C3.99797847,0.10611073 3.39554336,0.265276825 2.9026419,0.42444292 C2.35497362,0.63666438 1.86207216,0.901941204 1.42393754,1.37943949 C0.931036082,1.80388241 0.65720194,2.28138069 0.438134627,2.81193434 C0.273834142,3.28943263 0.109533657,3.87304164 0.0547668283,4.77498285 C6.98406982e-14,5.62386869 6.98406982e-14,5.88914551 6.98406982e-14,8.06441547 C6.98406982e-14,10.2396854 6.98406982e-14,10.5049623 0.0547668283,11.3538481 C0.109533657,12.2027339 0.219067313,12.786343 0.438134627,13.3168966 C0.65720194,13.8474503 0.931036082,14.2718932 1.36917071,14.7493915 C1.80730534,15.1738344 2.30020679,15.4921666 2.84787507,15.6513327 C3.39554336,15.8635541 3.99797847,15.9696649 4.87424772,16.0227202 C5.75051698,16.0757756 6.02435112,16.0757756 8.26979108,16.0757756 C10.515231,16.0757756 10.7890652,16.0757756 11.7201013,16.0227202 C12.5963705,15.9696649 13.1988056,15.8635541 13.7464739,15.6513327 C14.2941422,15.4391112 14.7322768,15.1738344 15.2251783,14.7493915 C15.6633129,14.3249485 15.9919139,13.8474503 16.1562144,13.3168966 C16.3752817,12.786343 16.4848153,12.2027339 16.5395822,11.3538481 C16.594349,10.5049623 16.594349,10.2396854 16.594349,8.06441547 C16.594349,5.88914551 16.594349,5.62386869 16.5395822,4.77498285 C16.4848153,3.92609701 16.3752817,3.34248799 16.1562144,2.81193434 C15.937147,2.28138069 15.6633129,1.85693777 15.2251783,1.37943949 C14.7870437,0.954996569 14.2941422,0.63666438 13.7464739,0.477498285 C13.1988056,0.265276825 12.5963705,0.159166095 11.7201013,0.10611073 C10.843832,0.053055365 10.5699979,-3.17457719e-15 8.32455791,-3.17457719e-15 L8.32455791,-3.17457719e-15 Z" id="Shape" fill-rule="nonzero"></path>
                    <path d="M8.32455791,3.92609701 C5.96958429,3.92609701 4.0527453,5.78303478 4.0527453,8.06441547 C4.0527453,10.3457962 5.96958429,12.2027339 8.32455791,12.2027339 C10.6795315,12.2027339 12.5963705,10.3457962 12.5963705,8.06441547 C12.5963705,5.78303478 10.6795315,3.92609701 8.32455791,3.92609701 Z M8.32455791,10.7171837 C6.79108672,10.7171837 5.58621649,9.49691033 5.58621649,8.01136011 C5.58621649,6.52580989 6.84585354,5.35859186 8.32455791,5.35859186 C9.8580291,5.35859186 11.1176662,6.57886526 11.1176662,8.01136011 C11.1176662,9.54996569 9.8580291,10.7171837 8.32455791,10.7171837 Z" id="Shape" fill-rule="nonzero"></path>
                    <ellipse id="Oval" cx="12.760671" cy="3.76693091" rx="1" ry="1"></ellipse>
                    <path d="M8.32455791,1.48555022 C10.515231,1.48555022 10.7890652,1.48555022 11.6653344,1.53860558 C12.4868369,1.59166095 12.9249715,1.69777168 13.1988056,1.80388241 C13.5821734,1.9630485 13.8560076,2.1222146 14.1298417,2.38749142 C14.4036759,2.65276825 14.6227432,2.91804507 14.7322768,3.28943263 C14.8418105,3.55470945 15.006111,3.97915237 15.006111,4.77498285 C15.0608778,5.62386869 15.0608778,5.88914551 15.0608778,8.01136011 C15.0608778,10.1335747 15.0608778,10.3988515 15.006111,11.2477374 C14.9513441,12.0435678 14.8418105,12.4680108 14.7322768,12.7332876 C14.5679763,13.1046751 14.4036759,13.369952 14.1298417,13.6352288 C13.8560076,13.9005056 13.5821734,14.1127271 13.1988056,14.2188378 C12.9249715,14.3249485 12.4868369,14.4841146 11.6653344,14.4841146 C10.7890652,14.53717 10.515231,14.53717 8.32455791,14.53717 C6.13388478,14.53717 5.86005063,14.53717 4.98378138,14.4841146 C4.16227895,14.4310593 3.72414433,14.3249485 3.45031019,14.2188378 C3.06694239,14.0596717 2.79310825,13.9005056 2.5192741,13.6352288 C2.24543996,13.369952 2.02637265,13.1046751 1.91683899,12.7332876 C1.80730534,12.4680108 1.64300485,12.0435678 1.64300485,11.2477374 C1.53347119,10.4519069 1.53347119,10.1866301 1.53347119,8.06441547 C1.53347119,5.94220088 1.53347119,5.67692405 1.58823802,4.82803821 C1.64300485,4.03220774 1.75253851,3.60776482 1.86207216,3.34248799 C2.02637265,2.97110044 2.19067313,2.65276825 2.46450728,2.38749142 C2.73834142,2.1222146 3.01217556,1.90999314 3.39554336,1.80388241 C3.72414433,1.69777168 4.16227895,1.53860558 4.98378138,1.53860558 C5.86005063,1.48555022 6.13388478,1.48555022 8.32455791,1.48555022 L8.32455791,1.48555022 Z M8.32455791,-3.17457719e-15 C6.07911795,-3.17457719e-15 5.8052838,-3.17457719e-15 4.92901455,0.053055365 C3.99797847,0.10611073 3.39554336,0.265276825 2.9026419,0.42444292 C2.35497362,0.63666438 1.86207216,0.901941204 1.42393754,1.37943949 C0.931036082,1.80388241 0.65720194,2.28138069 0.438134627,2.81193434 C0.273834142,3.28943263 0.109533657,3.87304164 0.0547668283,4.77498285 C6.98406982e-14,5.62386869 6.98406982e-14,5.88914551 6.98406982e-14,8.06441547 C6.98406982e-14,10.2396854 6.98406982e-14,10.5049623 0.0547668283,11.3538481 C0.109533657,12.2027339 0.219067313,12.786343 0.438134627,13.3168966 C0.65720194,13.8474503 0.931036082,14.2718932 1.36917071,14.7493915 C1.80730534,15.1738344 2.30020679,15.4921666 2.84787507,15.6513327 C3.39554336,15.8635541 3.99797847,15.9696649 4.87424772,16.0227202 C5.75051698,16.0757756 6.02435112,16.0757756 8.26979108,16.0757756 C10.515231,16.0757756 10.7890652,16.0757756 11.7201013,16.0227202 C12.5963705,15.9696649 13.1988056,15.8635541 13.7464739,15.6513327 C14.2941422,15.4391112 14.7322768,15.1738344 15.2251783,14.7493915 C15.6633129,14.3249485 15.9919139,13.8474503 16.1562144,13.3168966 C16.3752817,12.786343 16.4848153,12.2027339 16.5395822,11.3538481 C16.594349,10.5049623 16.594349,10.2396854 16.594349,8.06441547 C16.594349,5.88914551 16.594349,5.62386869 16.5395822,4.77498285 C16.4848153,3.92609701 16.3752817,3.34248799 16.1562144,2.81193434 C15.937147,2.28138069 15.6633129,1.85693777 15.2251783,1.37943949 C14.7870437,0.954996569 14.2941422,0.63666438 13.7464739,0.477498285 C13.1988056,0.265276825 12.5963705,0.159166095 11.7201013,0.10611073 C10.843832,0.053055365 10.5699979,-3.17457719e-15 8.32455791,-3.17457719e-15 L8.32455791,-3.17457719e-15 Z" id="Shape" fill-rule="nonzero"></path>
                    <path d="M8.32455791,3.92609701 C5.96958429,3.92609701 4.0527453,5.78303478 4.0527453,8.06441547 C4.0527453,10.3457962 5.96958429,12.2027339 8.32455791,12.2027339 C10.6795315,12.2027339 12.5963705,10.3457962 12.5963705,8.06441547 C12.5963705,5.78303478 10.6795315,3.92609701 8.32455791,3.92609701 Z M8.32455791,10.7171837 C6.79108672,10.7171837 5.58621649,9.49691033 5.58621649,8.01136011 C5.58621649,6.52580989 6.84585354,5.35859186 8.32455791,5.35859186 C9.8580291,5.35859186 11.1176662,6.57886526 11.1176662,8.01136011 C11.1176662,9.54996569 9.8580291,10.7171837 8.32455791,10.7171837 Z" id="Shape" fill-rule="nonzero"></path>
                    <ellipse id="Oval" cx="12.760671" cy="3.76693091" rx="1" ry="1"></ellipse>
                </g>
            </g>
        </g>
    </g>
</svg>