<?xml version="1.0" encoding="UTF-8"?>
<svg width="43px" height="43px" viewBox="0 0 43 43" version="1.1" xmlns="http://www.w3.org/2000/svg" xmlns:xlink="http://www.w3.org/1999/xlink">
    <!-- Generator: Sketch 63.1 (92452) - https://sketch.com -->
    <title>Group 11</title>
    <desc>Created with Sketch.</desc>
    <g id="Page-2" stroke="none" stroke-width="1" fill="none" fill-rule="evenodd" opacity="0.699999988">
        <g id="Group-11">
            <g id="Group-13" transform="translate(1.540000, 0.840000)">
                <circle id="Oval-Copy-5" cx="20.6849996" cy="21.1049996" r="20.6849996"></circle>
                <path d="M21.7307689,41.7501795 C21.8045652,41.7424497 21.8760575,41.7261633 21.945246,41.7013205 C22.0144344,41.6764776 22.0749074,41.6423421 22.1266649,41.598914 C22.1784223,41.5554858 22.2182586,41.502397 22.2461735,41.4396476 C22.2740885,41.3768981 22.2836706,41.3037519 22.2749199,41.2202089 C22.2708363,41.1812222 22.260835,41.1428554 22.2449161,41.1051083 C22.2289971,41.0673613 22.2070677,41.0327072 22.1791278,41.0011462 C22.1511879,40.9695851 22.1177315,40.9424729 22.0787585,40.9198096 C22.0397855,40.8971463 21.9951301,40.8807088 21.9447925,40.8704972 C21.9247157,40.8669695 21.8914313,40.861658 21.8449392,40.8545627 C21.7984471,40.8474674 21.7508742,40.8401334 21.7022206,40.8325607 C21.653567,40.824988 21.609548,40.8179856 21.5701636,40.8115535 L21.5701636,40.8115535 L21.502514,40.8006918 C21.4479992,40.7909177 21.4028135,40.7727762 21.3669568,40.7462673 C21.3311001,40.7197584 21.3104008,40.6800487 21.3048586,40.6271382 C21.3009208,40.5895439 21.3063417,40.5573037 21.3211213,40.5304178 C21.3359009,40.5035318 21.3557526,40.4813933 21.3806765,40.4640023 C21.4056004,40.4466112 21.4337466,40.4331056 21.4651151,40.4234854 C21.4964836,40.4138653 21.527484,40.4074509 21.5581164,40.4042423 C21.6486213,40.3947624 21.7251921,40.4068011 21.7878287,40.4403585 C21.8504654,40.4739159 21.8902963,40.5383672 21.9073215,40.6337124 L21.9073215,40.6337124 L22.1683932,40.6063664 C22.1602259,40.528393 22.1377268,40.4614225 22.100896,40.4054548 C22.0640652,40.3494871 22.0174278,40.3040484 21.960984,40.2691384 C21.9045401,40.2342285 21.8407994,40.2102885 21.7697617,40.1973183 C21.698724,40.184348 21.6242184,40.1819466 21.546245,40.1901139 C21.4794107,40.1971145 21.414184,40.2127445 21.3505651,40.237004 C21.2869462,40.2612635 21.2312736,40.2941924 21.1835474,40.3357906 C21.1358213,40.3773888 21.0991743,40.4273282 21.0736066,40.4856088 C21.0480388,40.5438895 21.0391928,40.6106241 21.0470684,40.6858128 C21.0511521,40.7247995 21.0603843,40.7625431 21.074765,40.7990436 C21.0891456,40.835544 21.1106176,40.8691903 21.1391807,40.8999822 C21.1677439,40.9307742 21.2046813,40.9575218 21.2499929,40.980225 C21.2953046,41.0029282 21.3508603,41.0192796 21.41666,41.0292793 C21.5226132,41.0463345 21.611659,41.0598818 21.6837974,41.0699214 C21.7559358,41.079961 21.8194812,41.0919565 21.8744335,41.1059077 C21.9062327,41.1138382 21.9364338,41.1300301 21.9650369,41.1544834 C21.9936399,41.1789367 22.0109313,41.2197072 22.0169109,41.2767949 C22.0198278,41.3046426 22.0171387,41.3327255 22.0088437,41.3610437 C22.0005486,41.3893619 21.9849634,41.4152765 21.9620882,41.4387875 C21.939213,41.4622984 21.9082786,41.4827825 21.8692851,41.5002396 C21.8302915,41.5176968 21.7822509,41.5294151 21.7251632,41.5353948 C21.6722526,41.5409369 21.6225513,41.5401603 21.5760592,41.533065 C21.5295671,41.5259697 21.4875672,41.5113656 21.4500595,41.4892527 C21.4125518,41.4671397 21.3819365,41.4369146 21.3582136,41.3985773 C21.3344908,41.3602401 21.3196395,41.3125276 21.3136599,41.2554399 L21.3136599,41.2554399 L21.0525882,41.2827859 C21.0636063,41.3745373 21.0893607,41.4524281 21.1298514,41.5164584 C21.1703421,41.5804887 21.2206956,41.6311688 21.2809121,41.6684989 C21.3411286,41.7058289 21.409925,41.730999 21.4873014,41.7440091 C21.5646777,41.7570192 21.6458335,41.759076 21.7307689,41.7501795 Z M25.4400229,41.2179325 C25.5273652,41.192392 25.6031913,41.1549035 25.6675011,41.1054669 C25.7318109,41.0560304 25.7832764,40.9975867 25.8218977,40.930136 C25.860519,40.8626852 25.8852058,40.7887341 25.8959581,40.7082826 C25.9067103,40.6278312 25.9022002,40.5438203 25.8824275,40.4562499 L25.8824275,40.4562499 L25.6365253,40.5281563 C25.6464746,40.5821334 25.6493949,40.6345194 25.6452861,40.6853142 C25.6411773,40.7361091 25.6286799,40.7831577 25.6077938,40.8264602 C25.5869078,40.8697627 25.5578139,40.9074428 25.5205121,40.9395007 C25.4832103,40.9715585 25.4363411,40.995839 25.3799045,41.0123421 C25.303312,41.0347391 25.2326147,41.0386381 25.1678126,41.024039 C25.1030104,41.0094398 25.045577,40.9813816 24.9955122,40.9398643 C24.9454475,40.8983469 24.90239,40.8471227 24.8663398,40.7861917 C24.8302896,40.7252606 24.8022447,40.6605301 24.7822053,40.5919999 C24.7621658,40.5234698 24.7509176,40.4538276 24.7484606,40.3830732 C24.7460036,40.3123189 24.7546796,40.2459669 24.7744887,40.1840172 C24.7942978,40.1220674 24.827566,40.0674864 24.8742934,40.020274 C24.9210207,39.9730616 24.9826806,39.9382569 25.0592731,39.9158599 C25.1116785,39.9005356 25.1597641,39.8941323 25.2035298,39.89665 C25.2472956,39.8991677 25.2876923,39.9088697 25.32472,39.9257561 C25.3617477,39.9426424 25.3947757,39.9658035 25.4238041,39.9952395 C25.4528325,40.0246754 25.4788121,40.0586494 25.5017427,40.0971615 L25.5017427,40.0971615 L25.7536918,40.023487 C25.7228394,39.9479083 25.6817757,39.8847968 25.6305006,39.8341523 C25.5792255,39.7835078 25.5201888,39.7449786 25.4533905,39.7185649 C25.3865922,39.6921512 25.3143426,39.6782712 25.2366416,39.676925 C25.1589407,39.6755788 25.0797784,39.6866936 24.9991547,39.7102695 C24.8916564,39.7417039 24.8011379,39.7900526 24.7275991,39.8553156 C24.6540603,39.9205785 24.5977486,39.9961195 24.558664,40.0819386 C24.5195794,40.1677577 24.497608,40.2609709 24.4927496,40.3615783 C24.4878913,40.4621857 24.5003935,40.5635511 24.5302562,40.6656744 C24.5605119,40.7691415 24.6047882,40.8619448 24.6630851,40.9440845 C24.721382,41.0262241 24.7901122,41.0929146 24.8692757,41.1441557 C24.9484392,41.1953969 25.03648,41.228362 25.1333982,41.2430508 C25.2303164,41.2577397 25.3325247,41.2493669 25.4400229,41.2179325 Z M28.6755733,40.1529093 L28.3966215,39.6021202 L28.741333,39.4275381 C28.7950381,39.4003388 28.8425427,39.3849108 28.883847,39.3812544 C28.9251512,39.3775979 28.9632274,39.3853846 28.9980754,39.4046143 C29.0329235,39.4238441 29.065322,39.4537303 29.0952711,39.4942729 C29.1252201,39.5348155 29.1556919,39.5856862 29.1866866,39.646885 C29.2031327,39.6793579 29.2217726,39.712289 29.2426062,39.7456783 C29.2634398,39.7790677 29.2898736,39.8056976 29.3219074,39.8255679 L29.3219074,39.8255679 L29.5729474,39.6984266 C29.5340523,39.6836005 29.4923842,39.6470314 29.4479432,39.5887194 C29.4035021,39.5304074 29.3613564,39.4619093 29.3215062,39.3832252 C29.2949393,39.3307691 29.2662433,39.2903765 29.235418,39.2620475 C29.2045928,39.2337184 29.1736538,39.2136859 29.142601,39.2019499 C29.1115482,39.1902139 29.0819388,39.1852011 29.0537728,39.1869115 C29.0256067,39.1886219 29.0008995,39.1932886 28.9796512,39.2009113 L28.9796512,39.2009113 C28.9877291,39.1889737 29.0010989,39.1712172 29.0197606,39.147642 C29.0384223,39.1240668 29.0537592,39.093152 29.0657711,39.0548976 C29.0777831,39.0166431 29.0825611,38.9718518 29.0801052,38.9205237 C29.0776493,38.8691955 29.0602915,38.8116831 29.0280318,38.7479864 C28.9704703,38.6343315 28.8887155,38.5643158 28.7827674,38.5379391 C28.6768194,38.5115625 28.550157,38.5356943 28.4027803,38.6103345 L28.4027803,38.6103345 L27.7639399,38.9338806 L28.4413942,40.2715113 L28.6755733,40.1529093 Z M28.6905376,39.2296369 L28.306484,39.4241441 L28.0948981,39.0063687 L28.4752049,38.8137592 C28.5051798,38.7985781 28.5354831,38.7863694 28.5661147,38.777133 C28.5967464,38.7678966 28.6267859,38.7652373 28.6562331,38.7691553 C28.6856803,38.7730732 28.7134486,38.7852957 28.7395378,38.8058228 C28.765627,38.8263499 28.7894249,38.8578457 28.8109314,38.9003101 C28.8469864,38.9715006 28.8546688,39.0346978 28.8339787,39.0899019 C28.8132886,39.145106 28.7654749,39.1916843 28.6905376,39.2296369 L28.6905376,39.2296369 Z M32.3054425,38.1917976 C32.3944273,38.123785 32.4616957,38.0463797 32.5072477,37.9595816 C32.5527998,37.8727835 32.5783676,37.782317 32.5839512,37.6881823 C32.5895348,37.5940476 32.5764909,37.4991724 32.5448195,37.4035567 C32.5131481,37.3079409 32.4645813,37.2173091 32.3991192,37.1316613 C32.3345072,37.0471257 32.2602263,36.9770288 32.1762763,36.9213704 C32.0923264,36.8657121 32.0042016,36.8282225 31.9119019,36.8089016 C31.8196023,36.7895807 31.7253843,36.7902281 31.6292479,36.8108438 C31.5331115,36.8314595 31.4405509,36.8757736 31.3515662,36.9437862 C31.2625814,37.0117988 31.1955255,37.0894822 31.1503986,37.1768365 C31.1052717,37.2641908 31.0799164,37.3549352 31.0743328,37.44907 C31.0687492,37.5432047 31.0817931,37.6380799 31.1134645,37.7336956 C31.1451359,37.8293114 31.1932776,37.919387 31.2578895,38.0039226 C31.3233516,38.0895704 31.3980577,38.1602235 31.4820076,38.2158819 C31.5659576,38.2715402 31.6540824,38.3090298 31.746382,38.3283507 C31.8386817,38.3476716 31.9326871,38.3467461 32.0283984,38.3255742 C32.1241097,38.3044024 32.2164578,38.2598102 32.3054425,38.1917976 Z M32.1753685,38.0216142 C32.1119668,38.0700732 32.0474088,38.0991519 31.9816943,38.1088503 C31.9159799,38.1185487 31.8522971,38.113038 31.790646,38.0923181 C31.7289949,38.0715983 31.6703885,38.0393003 31.614827,37.9954241 C31.5592654,37.9515479 31.5098056,37.9012459 31.4664476,37.8445181 C31.4230896,37.7877903 31.3875336,37.7268613 31.3597798,37.6617312 C31.332026,37.5966011 31.3162436,37.531572 31.3124326,37.466644 C31.3086216,37.401716 31.3200197,37.3388196 31.3466269,37.277955 C31.3732341,37.2170904 31.4182386,37.1624285 31.4816402,37.1139696 C31.5450419,37.0655106 31.6095999,37.0364319 31.6753144,37.0267335 C31.7410289,37.0170351 31.8047116,37.0225459 31.8663627,37.0432657 C31.9280138,37.0639855 31.9866202,37.0962835 32.0421818,37.1401598 C32.0977433,37.184036 32.1472031,37.234338 32.1905611,37.2910657 C32.2339192,37.3477935 32.2694751,37.4087225 32.2972289,37.4738526 C32.3249827,37.5389828 32.3407652,37.6040118 32.3445762,37.6689399 C32.3483872,37.7338679 32.336989,37.7967642 32.3103818,37.8576288 C32.2837746,37.9184935 32.2387701,37.9731553 32.1753685,38.0216142 Z M35.5295379,35.4165062 L35.3621582,35.2634628 L34.8477625,35.8260446 L33.9085763,34.9673013 L33.7314428,35.1610278 L34.8380087,36.1728145 L35.5295379,35.4165062 Z M37.7149164,32.7334397 L37.5243548,32.6104579 L37.1109993,33.2509566 L36.0417371,32.5608922 L35.8993971,32.7814496 L37.1592209,33.5944958 L37.7149164,32.7334397 Z M40.3238794,27.4318421 C40.3530037,27.3207979 40.3592624,27.2196774 40.3426553,27.1284807 C40.3260482,27.0372839 40.2916537,26.9573428 40.2394718,26.8886574 C40.1872898,26.8199719 40.1204728,26.7615597 40.0390207,26.7134207 C39.9575686,26.6652817 39.8667372,26.6280707 39.7665266,26.6017878 C39.666316,26.5755049 39.5689139,26.5633466 39.4743203,26.5653129 C39.3797268,26.5672792 39.2928424,26.5853791 39.2136672,26.6196127 C39.1344919,26.6538462 39.0652903,26.7066165 39.0060623,26.7779234 C38.9468343,26.8492304 38.9026582,26.940406 38.8735339,27.0514502 L38.8735339,27.0514502 L38.7158364,27.6527139 L40.1661819,28.0331058 L40.3238794,27.4318421 Z M40.0911146,27.4750026 L40.0255849,27.7248521 L38.9896238,27.4531435 L39.0551535,27.2032941 C39.0810813,27.1044377 39.1155064,27.0269873 39.1584288,26.970943 C39.2013513,26.9148988 39.2508785,26.8750603 39.3070104,26.8514276 C39.3631424,26.8277948 39.4243805,26.8178038 39.4907249,26.8214546 C39.5570692,26.8251053 39.6268047,26.8365204 39.6999314,26.8556998 C39.7730581,26.8748793 39.8394194,26.8991592 39.8990154,26.9285397 C39.9586115,26.9579202 40.0070633,26.9966803 40.044371,27.0448201 C40.0816787,27.0929598 40.1052782,27.1519778 40.1151694,27.2218738 C40.1250606,27.2917699 40.1170424,27.3761462 40.0911146,27.4750026 L40.0911146,27.4750026 Z M41.1826088,23.7178714 C41.1904883,23.6061489 41.1769564,23.504495 41.1420131,23.4129097 C41.1070699,23.3213244 41.0561536,23.2422965 40.9892642,23.1758259 C40.9223749,23.1093554 40.8426055,23.056362 40.749956,23.0168459 C40.6573065,22.9773299 40.5572153,22.9537798 40.4496824,22.9461957 C40.3435461,22.9387102 40.2418385,22.9480278 40.1445598,22.9741487 C40.0472811,23.0002696 39.9608633,23.0415421 39.8853065,23.0979662 C39.8097496,23.1543904 39.7478961,23.2254649 39.6997458,23.3111898 C39.6515954,23.3969147 39.6235805,23.4956384 39.615701,23.6073609 C39.6078214,23.7190833 39.6217024,23.8207619 39.657344,23.9123964 C39.6929855,24.0040309 39.744251,24.0830835 39.8111403,24.1495541 C39.8780296,24.2160246 39.9577991,24.269018 40.0504486,24.3085341 C40.1430981,24.3480501 40.242491,24.371551 40.3486273,24.3790365 C40.4561602,24.3866206 40.558566,24.3773522 40.6558447,24.3512313 C40.7531235,24.3251104 40.8395412,24.2838379 40.9150981,24.2274138 C40.9906549,24.1709896 41.0521593,24.0998905 41.0996114,24.0141163 C41.1470634,23.9283422 41.1747292,23.8295939 41.1826088,23.7178714 Z M40.9689395,23.7028018 C40.9633253,23.782404 40.9424144,23.8500505 40.9062067,23.9057412 C40.869999,23.9614318 40.8237314,24.0055361 40.7674041,24.0380538 C40.7110769,24.0705716 40.6480826,24.0931457 40.5784214,24.1057761 C40.5087602,24.1184066 40.4383181,24.1222102 40.367095,24.117187 C40.2958719,24.1121638 40.226661,24.0985107 40.1594621,24.0762279 C40.0922633,24.053945 40.0330611,24.0227527 39.9818555,23.9826508 C39.9306499,23.942549 39.8910307,23.8923874 39.862998,23.832166 C39.8349653,23.7719446 39.8237561,23.7020328 39.8293702,23.6224305 C39.8349844,23.5428282 39.8558953,23.4751817 39.8921031,23.4194911 C39.9283108,23.3638004 39.9745783,23.3196962 40.0309056,23.2871784 C40.0872329,23.2546606 40.1502271,23.2320865 40.2198883,23.2194561 C40.2895495,23.2068257 40.3599917,23.2030221 40.4312147,23.2080453 C40.5024378,23.2130685 40.5716488,23.2267215 40.6388476,23.2490044 C40.7060465,23.2712872 40.7652487,23.3024796 40.8164543,23.3425814 C40.8676599,23.3826832 40.907279,23.4328449 40.9353117,23.4930663 C40.9633444,23.5532877 40.9745537,23.6231995 40.9689395,23.7028018 Z M41.2812427,19.9812296 L40.1055134,19.8188856 L40.1049936,19.8147179 L41.2056152,19.3748274 L41.1726094,19.1101776 L39.6335378,18.8852182 L39.6665436,19.149868 L40.8388944,19.2851218 L40.8394142,19.2892895 L39.738013,19.7229285 L39.7712787,19.9896621 L40.9464882,20.1478384 L40.947008,20.1520061 L39.842748,20.5627227 L39.8757538,20.8273724 L41.3147683,20.2500471 L41.2812427,19.9812296 Z M40.7147612,16.0548283 L39.6682711,16.4017644 L39.6662886,16.3957845 L40.4980087,15.4010211 L40.4107791,15.1379036 L38.9875525,15.6097368 L39.0661914,15.8469412 L40.1146748,15.4993442 L40.1159965,15.5033309 L39.2829439,16.5007484 L39.3701736,16.7638659 L40.7934001,16.2920327 L40.7147612,16.0548283 Z" id="SCROLLDOWN" fill="#FFFFFF" fill-rule="nonzero"></path>
            </g>
            <g id="Group-13-Copy" transform="translate(21.279999, 20.999999) rotate(-180.000000) translate(-21.279999, -20.999999) translate(0.279999, -0.000001)">
                <circle id="Oval-Copy-5" cx="20.6849996" cy="21.1049996" r="20.6849996"></circle>
                <path d="M30.6134814,39.2403673 C30.6765129,39.2012178 30.7337383,39.1553741 30.7851578,39.1028361 C30.8365774,39.0502981 30.8761005,38.9932005 30.9037274,38.9315434 C30.9313542,38.8698863 30.9440395,38.8047371 30.9417832,38.7360956 C30.939527,38.6674541 30.9162388,38.5974553 30.8719187,38.5260989 C30.8512359,38.4927993 30.8254988,38.462639 30.7947073,38.4356181 C30.7639157,38.4085972 30.7290651,38.3869814 30.6901555,38.370771 C30.6512458,38.3545605 30.6093131,38.3447599 30.5643573,38.3413691 C30.5194016,38.3379783 30.4720487,38.3426686 30.4222988,38.3554401 C30.4026944,38.3610243 30.3704271,38.3707654 30.3254971,38.3846633 C30.280567,38.3985613 30.2345604,38.4127159 30.1874771,38.4271272 C30.1403938,38.4415385 30.0977297,38.454441 30.0594847,38.4658349 L30.0594847,38.4658349 L29.9938736,38.4855738 C29.9405559,38.5005612 29.8919824,38.5039496 29.8481531,38.4957389 C29.8043238,38.4875283 29.7683745,38.4608268 29.7403051,38.4156345 C29.720361,38.3835241 29.7111739,38.3521488 29.7127438,38.3215085 C29.7143136,38.2908683 29.7225186,38.2622871 29.7373588,38.2357651 C29.7521989,38.209243 29.7716336,38.1848114 29.7956629,38.1624703 C29.8196921,38.1401292 29.8447888,38.1208333 29.8709527,38.1045826 C29.9482554,38.0565691 30.0224075,38.0339974 30.093409,38.0368676 C30.1644105,38.0397378 30.2283685,38.0803561 30.285283,38.1587225 L30.285283,38.1587225 L30.5082716,38.0202221 C30.4669061,37.9536229 30.4174447,37.9031766 30.3598873,37.8688832 C30.3023299,37.8345899 30.2405416,37.8140488 30.1745225,37.80726 C30.1085034,37.8004712 30.040704,37.8067366 29.9711243,37.8260562 C29.9015447,37.8453759 29.8334552,37.8757185 29.766856,37.9170839 C29.7097709,37.95254 29.6578972,37.9950597 29.6112347,38.0446431 C29.5645723,38.0942264 29.5288422,38.148144 29.5040445,38.2063958 C29.4792469,38.2646476 29.4680574,38.3255717 29.4704762,38.389168 C29.472895,38.4527643 29.4940485,38.5166728 29.5339366,38.5808935 C29.5546193,38.6141931 29.5793925,38.6441281 29.6082561,38.6706984 C29.6371197,38.6972687 29.6711189,38.7181772 29.7102539,38.7334237 C29.7493888,38.7486701 29.7942947,38.7566241 29.8449716,38.7572855 C29.8956484,38.7579469 29.9527721,38.7484239 30.0163427,38.7287164 C30.1191222,38.6978403 30.2051577,38.6711839 30.2744493,38.648747 C30.3437409,38.6263101 30.4061536,38.6093819 30.4616873,38.5979623 C30.4937606,38.5912258 30.5280001,38.5926202 30.5644057,38.6021456 C30.6008113,38.6116711 30.6341568,38.6408139 30.6644422,38.689574 C30.6792156,38.7133595 30.6890472,38.7398023 30.693937,38.7689024 C30.6988269,38.7980026 30.6961084,38.8281202 30.6857815,38.8592554 C30.6754547,38.8903905 30.6565555,38.9223178 30.6290839,38.9550373 C30.6016124,38.9877567 30.5634965,39.0192592 30.5147364,39.0495446 C30.469544,39.077614 30.4244828,39.0985977 30.3795528,39.1124956 C30.3346228,39.1263935 30.2904592,39.1315751 30.247062,39.1280403 C30.2036648,39.1245055 30.1629306,39.1106643 30.1248594,39.0865168 C30.0867882,39.0623692 30.0526099,39.0259154 30.0223245,38.9771552 L30.0223245,38.9771552 L29.7993359,39.1156556 C29.8492774,39.1934089 29.906432,39.2522614 29.9708,39.292213 C30.035168,39.3321647 30.1025868,39.3558009 30.1730564,39.3631215 C30.243526,39.3704422 30.3164112,39.3630781 30.3917119,39.341029 C30.4670127,39.31898 30.5409358,39.2854261 30.6134814,39.2403673 Z M33.7021005,37.1535175 C33.7696241,37.0925128 33.8215795,37.0257624 33.8579667,36.9532663 C33.894354,36.8807702 33.9152574,36.8057541 33.9206768,36.7282181 C33.9260962,36.650682 33.9161409,36.5733574 33.890811,36.4962442 C33.8654811,36.419131 33.8248607,36.345455 33.7689498,36.2752161 L33.7689498,36.2752161 L33.5788451,36.4469678 C33.6112926,36.491236 33.6367191,36.5371306 33.6551245,36.5846516 C33.6735299,36.6321725 33.6827525,36.6799711 33.6827922,36.7280474 C33.6828318,36.7761237 33.6730348,36.8227098 33.6534012,36.8678058 C33.6337676,36.9129018 33.6021355,36.9551591 33.5585049,36.9945775 C33.4992919,37.0480739 33.4373367,37.0823502 33.3726393,37.0974064 C33.3079418,37.1124626 33.2440216,37.1121943 33.1808787,37.0966014 C33.1177357,37.0810086 33.0566775,37.0536268 32.9977041,37.0144561 C32.9387306,36.9752854 32.8853113,36.9292101 32.8374461,36.8762301 C32.7895809,36.8232501 32.7491468,36.765443 32.716144,36.702809 C32.6831411,36.640175 32.6620776,36.5766597 32.6529535,36.5122631 C32.6438294,36.4478665 32.6500298,36.3842472 32.6715547,36.3214051 C32.6930796,36.258563 32.7334485,36.2003937 32.7926615,36.1468973 C32.8331756,36.1102945 32.8736826,36.0836036 32.9141825,36.0668245 C32.9546824,36.0500454 32.9952755,36.0412008 33.0359618,36.0402907 C33.076648,36.0393806 33.1164639,36.0458605 33.1554093,36.0597305 C33.1943547,36.0736004 33.2325299,36.092883 33.2699351,36.1175783 L33.2699351,36.1175783 L33.4647145,35.9416033 C33.4040466,35.8869827 33.3396104,35.8480305 33.2714058,35.8247468 C33.2032012,35.8014631 33.1332808,35.7924651 33.0616446,35.7977527 C32.9900085,35.8030404 32.9189186,35.8219851 32.8483752,35.8545867 C32.7778317,35.8871884 32.7113953,35.9316453 32.6490659,35.9879573 C32.56596,36.06304 32.5055024,36.1459621 32.4676931,36.2367237 C32.4298838,36.3274853 32.4120576,36.4200039 32.4142146,36.5142793 C32.4163715,36.6085548 32.437154,36.7020403 32.4765619,36.7947359 C32.5159698,36.8874314 32.5713381,36.9732545 32.6426666,37.0522051 C32.7149337,37.1321945 32.7951836,37.1964815 32.8834162,37.245066 C32.9716489,37.2936504 33.0625519,37.3237849 33.1561254,37.3354695 C33.2496988,37.347154 33.3433116,37.3385205 33.4369636,37.3095689 C33.5306157,37.2806173 33.6189946,37.2286002 33.7021005,37.1535175 Z M36.1589909,34.7811441 L35.6690237,34.4054915 L35.904126,34.0988453 C35.9407543,34.0510708 35.9768916,34.0165917 36.0125381,33.9954082 C36.0481846,33.9742248 36.085877,33.9647536 36.1256155,33.9669948 C36.165354,33.969236 36.2074996,33.9821433 36.2520523,34.0057167 C36.296605,34.0292901 36.3461018,34.0619463 36.4005426,34.1036855 C36.4294295,34.1258328 36.4604923,34.1474432 36.4937309,34.1685166 C36.5269695,34.1895899 36.5623284,34.2021453 36.5998077,34.2061826 L36.5998077,34.2061826 L36.7710236,33.9828643 C36.7295444,33.986345 36.6761494,33.9714284 36.6108387,33.9381145 C36.5455281,33.9048006 36.4778751,33.8613113 36.4078798,33.8076467 C36.3612162,33.7718702 36.3178579,33.7478894 36.2778047,33.7357044 C36.2377516,33.7235193 36.2011889,33.7188616 36.1681166,33.7217314 C36.1350444,33.7246011 36.1061848,33.7329058 36.0815378,33.7466454 C36.0568908,33.760385 36.0366418,33.7752913 36.0207906,33.7913642 L36.0207906,33.7913642 C36.0229018,33.7771058 36.0272629,33.7553108 36.0338741,33.7259792 C36.0404853,33.6966476 36.0409209,33.6621403 36.0351811,33.6224572 C36.0294412,33.5827742 36.0143501,33.5403319 35.9899076,33.4951304 C35.9654652,33.4499289 35.9249126,33.4056067 35.8682497,33.3621639 C35.7671454,33.2846482 35.6631331,33.2569446 35.5562128,33.2790529 C35.4492926,33.3011613 35.345575,33.3777666 35.2450603,33.5088689 L35.2450603,33.5088689 L34.8093543,34.0771642 L35.9992746,34.9894635 L36.1589909,34.7811441 Z M35.7726356,33.9424633 L35.510701,34.2841071 L35.1390592,33.9991733 L35.3984384,33.6608626 C35.4188821,33.6341977 35.440909,33.6100698 35.4645191,33.5884787 C35.4881292,33.5668877 35.5140539,33.5514815 35.5422931,33.5422602 C35.5705324,33.5330389 35.6008548,33.5320302 35.6332603,33.5392339 C35.6656658,33.5464377 35.7007562,33.5645205 35.7385314,33.5934824 C35.8018605,33.6420361 35.8361541,33.6956725 35.8414122,33.7543915 C35.8466704,33.8131105 35.8237448,33.8758011 35.7726356,33.9424633 L35.7726356,33.9424633 Z M38.5794655,31.4402281 C38.6301449,31.3403502 38.657183,31.2414282 38.6605798,31.1434621 C38.6639766,31.0454959 38.6477758,30.9528924 38.6119773,30.8656514 C38.5761788,30.7784104 38.523275,30.6985816 38.4532658,30.626165 C38.3832567,30.5537484 38.3001859,30.4931506 38.2040534,30.4443717 C38.1091694,30.3962262 38.0118357,30.3652843 37.9120524,30.3515459 C37.8122691,30.3378076 37.7166045,30.3422508 37.6250587,30.3648755 C37.5335128,30.3875002 37.4488994,30.4289492 37.3712184,30.4892226 C37.2935374,30.5494959 37.2293572,30.6295715 37.1786778,30.7294494 C37.1279984,30.8293273 37.1012724,30.9284077 37.0984998,31.0266906 C37.0957273,31.1249734 37.1122402,31.2177353 37.1480387,31.3049763 C37.1838372,31.3922173 37.236741,31.4720461 37.3067502,31.5444627 C37.3767593,31.6168794 37.4592059,31.6771604 37.5540899,31.7253058 C37.6502224,31.7740848 37.7481803,31.8053434 37.8479636,31.8190818 C37.9477469,31.8328202 38.0434115,31.828377 38.1349573,31.8057522 C38.2265032,31.7831275 38.3108045,31.7415201 38.3878612,31.6809301 C38.464918,31.62034 38.5287861,31.540106 38.5794655,31.4402281 Z M38.388449,31.3433037 C38.3523399,31.4144668 38.3067829,31.4686689 38.2517781,31.5059103 C38.1967733,31.5431516 38.1370023,31.5658077 38.0724653,31.5738785 C38.0079282,31.5819494 37.9411127,31.5782672 37.8720189,31.562832 C37.802925,31.5473968 37.736542,31.5235251 37.6728698,31.491217 C37.6091976,31.4589089 37.5507333,31.4194313 37.4974767,31.3727842 C37.4442201,31.3261372 37.4017941,31.2743887 37.3701987,31.2175389 C37.3386033,31.1606892 37.3215931,31.0990733 37.3191681,31.0326913 C37.3167432,30.9663093 37.3335852,30.8975368 37.3696943,30.8263738 C37.4058034,30.7552107 37.4513603,30.7010086 37.5063652,30.6637672 C37.56137,30.6265259 37.621141,30.6038698 37.685678,30.595799 C37.7502151,30.5877281 37.8170306,30.5914103 37.8861244,30.6068455 C37.9552183,30.6222807 38.0216013,30.6461524 38.0852735,30.6784605 C38.1489457,30.7107686 38.20741,30.7502462 38.2606666,30.7968933 C38.3139232,30.8435403 38.3563492,30.8952888 38.3879446,30.9521386 C38.41954,31.0089883 38.4365502,31.0706042 38.4389752,31.1369862 C38.4414001,31.2033682 38.4245581,31.2721407 38.388449,31.3433037 Z M40.2746884,27.5549597 L40.0574038,27.4899549 L39.8389153,28.2202726 L38.6197072,27.8555233 L38.5444701,28.1070101 L39.9809629,28.5367643 L40.2746884,27.5549597 Z M41.0763308,24.1768417 L40.8511869,24.1494833 L40.7592322,24.9062168 L39.495925,24.7527055 L39.4642601,25.0132887 L40.9527111,25.1941584 L41.0763308,24.1768417 Z" id="SCROLL" fill="#FFFFFF" fill-rule="nonzero"></path>
            </g>
            <path d="M41.2212669,21.1049996 C41.2212669,31.3412421 33.8246643,40.0292087 23.8457389,41.7385841 C23.3084919,41.8306137 22.766585,41.9017735 22.2208859,41.951782 L21.6739549,41.9947295 L21.6412988,41.4957971 C22.3547762,41.4490986 23.0621121,41.3655354 23.7613192,41.2457623 C33.3851974,39.597206 40.5490022,31.297628 40.7182051,21.4611937 L40.7212669,21.1049996 L41.2212669,21.1049996 Z M20.2862673,0.169999993 C22.1881912,0.169999993 24.0562937,0.423719444 25.8546039,0.918701509 L26.3919673,1.07442155 L26.2463482,1.55274685 C24.331032,0.969657127 22.3289037,0.669999993 20.2862673,0.669999993 C12.0310699,0.669999993 4.69290091,5.61044778 1.50042628,13.0489734 L1.35155015,13.4050674 L0.88844981,13.2165519 C4.073102,5.39324871 11.6949513,0.169999993 20.2862673,0.169999993 Z" id="Shape" fill="#FFFFFF" fill-rule="nonzero" transform="translate(21.054858, 21.082365) scale(-1, 1) translate(-21.054858, -21.082365) "></path>
            <path d="M18.4732447,23.5087998 C19.0199447,23.6578998 19.5815547,23.7945748 20.1580747,23.9188248 C20.7345946,24.0430748 21.2564446,24.1797498 21.7236246,24.3288498 C22.1908046,24.4779498 22.5759796,24.6518998 22.8791496,24.8506998 C23.1823196,25.0494998 23.3339046,25.3029698 23.3339046,25.6111098 C23.3339046,25.8794898 23.2866896,26.0907148 23.1922596,26.2447848 C23.0978296,26.3988548 22.9512146,26.5504398 22.7524146,26.6995398 C22.9313346,26.5802598 23.1425596,26.4286748 23.3860896,26.2447848 C23.6296196,26.0608948 23.8632096,25.8496698 24.0868596,25.6111098 C24.3105096,25.3725498 24.5018546,25.1116248 24.6608946,24.8283348 C24.8199346,24.5450448 24.8994546,24.2443598 24.8994546,23.9262798 C24.8994546,23.5783798 24.7702346,23.2851498 24.5117946,23.0465898 C24.2533546,22.8080299 23.9153946,22.6017749 23.4979146,22.4278249 C23.0804346,22.2538749 22.6132546,22.1047749 22.0963746,21.9805249 C21.5794946,21.8562749 21.0626146,21.7295399 20.5457347,21.6003199 L20.5457347,21.6003199 L22.2305646,20.0496799 C22.8070846,20.1987799 23.3711796,20.3652749 23.9228496,20.5491649 C24.4745196,20.7330549 24.9640646,20.9517349 25.3914846,21.2052049 C25.8189046,21.4586749 26.1643196,21.7668149 26.4277295,22.1296249 C26.6911395,22.4924349 26.8228445,22.9273098 26.8228445,23.4342498 C26.8228445,23.7125698 26.8004795,23.9610698 26.7557495,24.1797498 C26.7110195,24.3984298 26.6439245,24.5997148 26.5544645,24.7836048 C26.4650045,24.9674948 26.3581496,25.1414448 26.2338996,25.3054548 C26.1096496,25.4694648 25.9680046,25.6309898 25.8089646,25.7900298 C26.1469246,25.5514698 26.4948245,25.2855748 26.8526645,24.9923448 C27.2105045,24.6991148 27.5335545,24.3860048 27.8218145,24.0530148 C28.1100745,23.7200248 28.3461495,23.3671548 28.5300395,22.9944048 C28.7139295,22.6216549 28.8058745,22.2265399 28.8058745,21.8090599 C28.8058745,21.2722999 28.6816245,20.8076049 28.4331245,20.4149749 C28.1846245,20.0223449 27.8516345,19.6818999 27.4341545,19.3936399 C27.0166745,19.1053799 26.5395545,18.8593649 26.0027946,18.6555949 C25.4660346,18.4518249 24.9143646,18.2654499 24.3477846,18.0964699 L24.3477846,18.0964699 L28.9997045,13.8173 C28.7611445,14.03598 28.5449495,14.18508 28.3511195,14.2646 C28.1572895,14.34412 27.9013345,14.38388 27.5832545,14.38388 C27.2651745,14.38388 26.8650895,14.3143 26.3829996,14.17514 C25.9009096,14.03598 25.3989396,13.884395 24.8770896,13.720385 C24.3552396,13.556375 23.8532696,13.40479 23.3711796,13.26563 C22.8890896,13.12647 22.4890046,13.05689 22.1709246,13.05689 C21.9820646,13.05689 21.8304796,13.06683 21.7161696,13.08671 C21.6018596,13.10659 21.5049446,13.13641 21.4254246,13.17617 C21.3260246,13.21593 21.2241396,13.2706 21.1197696,13.34018 C21.0153996,13.40976 20.8836946,13.50419 20.7246546,13.62347 C20.4363947,13.85209 20.1531047,14.09562 19.8747847,14.35406 C19.5964647,14.6125 19.2585047,14.92561 18.8609047,15.29339 C18.4334847,15.69099 18.0980097,16.03889 17.8544797,16.33709 C17.6109497,16.63529 17.4891847,16.9434299 17.4891847,17.2615099 C17.4891847,17.6690499 17.6233747,18.0144649 17.8917547,18.2977549 C18.1601347,18.5810449 18.5130047,18.8245749 18.9503647,19.0283449 C19.3877247,19.2321149 19.8872097,19.4110349 20.4488197,19.5651049 C21.0104296,19.7191749 21.5844646,19.8757299 22.1709246,20.0347699 L22.1709246,20.0347699 L20.4711847,21.5854099 C20.0636447,21.4860099 19.6784697,21.3816399 19.3156597,21.2722999 C18.9528497,21.1629599 18.6297997,21.0362249 18.3465097,20.8920949 C18.0632197,20.7479649 17.8395697,20.5839549 17.6755597,20.4000649 C17.5115497,20.2161749 17.4295447,19.9950099 17.4295447,19.7365699 C17.4295447,19.5178899 17.4568797,19.3290299 17.5115497,19.1699899 C17.5662197,19.0109499 17.6879847,18.8171199 17.8768447,18.5884999 C17.5488247,18.8171199 17.2481397,19.0308299 16.9747897,19.2296299 C16.7014397,19.4284299 16.4678497,19.6297149 16.2740197,19.8334849 C16.0801897,20.0372549 15.9310897,20.2509649 15.8267197,20.4746149 C15.7223497,20.6982649 15.6701647,20.9492499 15.6701647,21.2275699 C15.6701647,21.5357099 15.7422297,21.8065749 15.8863597,22.0401649 C16.0304897,22.2737549 16.2268047,22.4800099 16.4753047,22.6589299 C16.7238047,22.8378498 17.0120647,22.9944048 17.3400847,23.1285948 C17.6681047,23.2627848 18.0209747,23.3845498 18.3986947,23.4938898 L18.3986947,23.4938898 L15.2825047,26.3566098 L12.8670848,28.7123897 L12.8969048,28.6974797 C13.2646848,28.3595198 13.5753098,28.0787148 13.8287798,27.8550648 C14.0822498,27.6314148 14.3009298,27.4524948 14.4848198,27.3183048 C14.6687098,27.1841148 14.8327197,27.0896848 14.9768497,27.0350148 C15.1209797,26.9803448 15.2775347,26.9530098 15.4465147,26.9530098 C15.6055547,26.9530098 15.8217497,27.0027098 16.0950997,27.1021098 C16.3684497,27.2015098 16.6741047,27.3257598 17.0120647,27.4748598 C17.3500247,27.6239598 17.7153197,27.7829998 18.1079497,27.9519798 C18.5005797,28.1209598 18.8981797,28.2799998 19.3007497,28.4290998 C19.7033197,28.5781998 20.1034047,28.7024497 20.5010047,28.8018497 C20.8986046,28.9012497 21.2713546,28.9509497 21.6192546,28.9509497 C23.2991146,28.9509497 24.6211346,27.9917398 25.5853146,26.0733198 C25.3368146,26.4311598 25.0734046,26.6821448 24.7950846,26.8262748 C24.5167646,26.9704048 24.1489846,27.0424698 23.6917446,27.0424698 C23.3836046,27.0424698 23.0481296,26.9952548 22.6853196,26.9008248 C22.3225096,26.8063948 21.9472746,26.6895998 21.5596146,26.5504398 C21.1719546,26.4112798 20.7818096,26.2596948 20.3891797,26.0956848 C19.9965497,25.9316748 19.6262847,25.7800898 19.2783847,25.6409298 C18.9304847,25.5017698 18.6074347,25.3849748 18.3092347,25.2905448 C18.0110347,25.1961148 17.7625347,25.1488998 17.5637347,25.1488998 C17.4842147,25.1488998 17.3872997,25.1538698 17.2729897,25.1638098 C17.1586797,25.1737498 17.0195197,25.2135098 16.8555097,25.2830898 C16.6914997,25.3526698 16.5001547,25.4620098 16.2814747,25.6111098 C16.0627947,25.7602098 15.8043547,25.9739198 15.5061547,26.2522398 L15.5159996,26.2439998 L18.4732447,23.5087998 Z M24.2881446,18.0815599 C23.6718646,17.9026399 23.0630396,17.7386299 22.4616696,17.5895299 C21.8602996,17.4404299 21.3210546,17.2739349 20.8439346,17.0900449 C20.3668147,16.906155 19.9816397,16.69493 19.6884097,16.45637 C19.3951797,16.21781 19.2485647,15.92458 19.2485647,15.57668 C19.2485647,15.39776 19.2560197,15.2586 19.2709297,15.1592 C19.2858397,15.0598 19.3181447,14.95543 19.3678447,14.84609 C19.5567047,14.76657 19.8002347,14.72681 20.0984347,14.72681 C20.4065747,14.72681 20.7892646,14.79639 21.2465046,14.93555 C21.7037446,15.07471 22.1709246,15.22878 22.6480446,15.39776 C23.1251646,15.56674 23.5873746,15.72081 24.0346746,15.85997 C24.4819746,15.99913 24.8547246,16.06871 25.1529246,16.06871 C25.3616646,16.06871 25.5704046,16.04386 25.7791446,15.99416 C25.9878846,15.94446 26.2189896,15.855 26.4724595,15.72578 C26.7259295,15.59656 27.0092195,15.41764 27.3223295,15.18902 C27.6354395,14.9604 27.9957645,14.6622 28.4033045,14.29442 L28.4033045,14.29442 L24.2881446,18.0815599 Z" id="S" fill="#FFFFFF" fill-rule="nonzero"></path>
        </g>
    </g>
</svg>